<svg xmlns="http://www.w3.org/2000/svg" xmlns:xlink="http://www.w3.org/1999/xlink" width="500" zoomAndPan="magnify" viewBox="0 0 375 374.999991" height="500" preserveAspectRatio="xMidYMid meet" version="1.0"><defs><clipPath id="3ea8277b00"><path d="M 27.5625 37.5 L 347.8125 37.5 L 347.8125 351 L 27.5625 351 Z M 27.5625 37.5 " clip-rule="nonzero"/></clipPath></defs><g clip-path="url(#3ea8277b00)"><path fill="#ff1616" d="M 73.683594 117.339844 L 190.933594 117.339844 C 233.285156 117.339844 267.925781 151.945312 267.925781 194.25 C 267.925781 236.554688 233.285156 271.160156 190.933594 271.160156 L 155.074219 271.160156 L 155.074219 191.363281 L 75.148438 191.363281 L 75.148438 271.160156 L 32.503906 271.160156 L 32.503906 313.800781 L 75.148438 313.800781 L 75.148438 271.160156 L 155.074219 271.160156 L 155.074219 350.957031 L 190.933594 350.957031 C 277.226562 350.957031 347.8125 280.449219 347.8125 194.25 C 347.8125 108.050781 277.226562 37.542969 190.933594 37.542969 L 27.5625 37.542969 Z M 73.683594 117.339844 " fill-opacity="1" fill-rule="evenodd"/></g></svg>