<svg xmlns="http://www.w3.org/2000/svg" xmlns:xlink="http://www.w3.org/1999/xlink" width="500" zoomAndPan="magnify" viewBox="0 0 375 374.999991" height="500" preserveAspectRatio="xMidYMid meet" version="1.0"><defs><clipPath id="52723acaba"><path d="M 172 31 L 363 31 L 363 343 L 172 343 Z M 172 31 " clip-rule="nonzero"/></clipPath><clipPath id="ddd9b5022b"><path d="M 26.105469 29.925781 L 362.105469 29.144531 L 362.839844 344.894531 L 26.839844 345.671875 Z M 26.105469 29.925781 " clip-rule="nonzero"/></clipPath><clipPath id="a3a9f3cf6b"><path d="M 26.105469 29.917969 L 362.105469 29.136719 L 362.839844 344.886719 L 26.839844 345.664062 Z M 26.105469 29.917969 " clip-rule="nonzero"/></clipPath><clipPath id="60336f2b8c"><path d="M 26.105469 29.917969 L 362.105469 29.136719 L 362.839844 344.886719 L 26.839844 345.664062 Z M 26.105469 29.917969 " clip-rule="nonzero"/></clipPath><clipPath id="d0b57fabbc"><path d="M 26 32 L 217 32 L 217 344 L 26 344 Z M 26 32 " clip-rule="nonzero"/></clipPath><clipPath id="bea43a89c7"><path d="M 26.105469 29.925781 L 362.105469 29.144531 L 362.839844 344.894531 L 26.839844 345.671875 Z M 26.105469 29.925781 " clip-rule="nonzero"/></clipPath><clipPath id="e60e101fa7"><path d="M 26.105469 29.917969 L 362.105469 29.136719 L 362.839844 344.886719 L 26.839844 345.664062 Z M 26.105469 29.917969 " clip-rule="nonzero"/></clipPath><clipPath id="910f6db698"><path d="M 26.105469 29.917969 L 362.105469 29.136719 L 362.839844 344.886719 L 26.839844 345.664062 Z M 26.105469 29.917969 " clip-rule="nonzero"/></clipPath></defs><g clip-path="url(#52723acaba)"><g clip-path="url(#ddd9b5022b)"><g clip-path="url(#a3a9f3cf6b)"><g clip-path="url(#60336f2b8c)"><path fill="#312783" d="M 234.480469 155.863281 C 234.488281 155.863281 234.488281 155.863281 234.488281 155.863281 C 236.511719 155.859375 238.148438 157.488281 238.152344 159.507812 C 238.152344 159.523438 238.144531 159.53125 238.144531 159.542969 L 238.332031 239.796875 C 238.332031 239.8125 238.253906 203.308594 238.253906 203.324219 L 238.429688 278.6875 C 238.503906 311.707031 263.4375 340.535156 296.402344 342.667969 C 332.554688 345.007812 362.683594 316.222656 362.601562 280.59375 L 362.164062 93.507812 C 362.085938 59.882812 335.222656 31.945312 301.585938 31.59375 C 230.347656 30.859375 172.25 88.65625 172.414062 159.660156 L 172.488281 191.738281 C 172.488281 192.492188 173.453125 192.722656 173.8125 192.058594 C 185.570312 170.578125 208.308594 155.929688 234.480469 155.863281 Z M 234.480469 155.863281 " fill-opacity="1" fill-rule="nonzero"/></g></g></g></g><g clip-path="url(#d0b57fabbc)"><g clip-path="url(#bea43a89c7)"><g clip-path="url(#e60e101fa7)"><g clip-path="url(#910f6db698)"><path fill="#009fe3" d="M 150.816406 215.359375 L 150.664062 149.640625 L 150.539062 96.179688 C 150.460938 63.152344 125.523438 34.324219 92.550781 32.199219 C 56.398438 29.867188 26.285156 58.65625 26.367188 94.28125 L 26.800781 281.363281 C 26.878906 314.988281 53.746094 342.933594 87.378906 343.28125 C 158.617188 344.015625 216.71875 286.21875 216.554688 215.214844 L 216.480469 183.128906 C 216.476562 182.371094 215.519531 182.144531 215.152344 182.808594 C 203.382812 204.3125 180.601562 218.972656 154.390625 219.003906 C 152.421875 219.007812 150.820312 217.335938 150.816406 215.359375 Z M 150.816406 215.359375 " fill-opacity="1" fill-rule="nonzero"/></g></g></g></g></svg>